# xmcd CD database file
#
# Track frame offsets:
#	150
#	17652
#	43512
#	66427
#	89487
#	112825
#	132425
#	154022
#	183742
#	204935
#	229497
#	244387
#	264257
#	282182
#	309322
#
# Disc length: 4473 seconds
#
# Revision: 0
# Processed by: cddbd v1.5.2PL0 Copyright (c) Steve Scherf et al.
# Submitted via: CDex 1.70beta2
#
DISCID=d111770f
DTITLE=Various Artist - Montecarlo Nights - Nouveau Beat 03 - CD 2
DYEAR=2003
DGENRE=Jazz
TTITLE0=Christian Saavedra and Henrik Zelizi - Todo Lo Que Quiero
TTITLE1=Blaze - Melodies Of Love
TTITLE2=Les Go - Dan Gna (Sacred Rhythn Mix)
TTITLE3=Krisnidanov - Mama Africa
TTITLE4=Dzihan and Kamien - Stiff Jazz
TTITLE5=Bent - Magic Love
TTITLE6=Suba - Felicidade
TTITLE7=Blaze - Breathe
TTITLE8=Banda Black Rio - Magia Do Prazer
TTITLE9=Fudge - Tequila Miss Paulette
TTITLE10=Lanice Desardi and Waric Cameron - Jazz By #'s
TTITLE11=Zumo Royal - Libertango
TTITLE12=Studiouno Band - It's Wake Up Time
TTITLE13=Fudge - Close To My People
TTITLE14=Kim English - Been So Long
EXTD=YEAR: 2003
EXTT0=
EXTT1=
EXTT2=
EXTT3=
EXTT4=
EXTT5=
EXTT6=
EXTT7=
EXTT8=
EXTT9=
EXTT10=
EXTT11=
EXTT12=
EXTT13=
EXTT14=
PLAYORDER=
